<svg width="343" height="59" viewBox="0 0 343 59" fill="none" xmlns="http://www.w3.org/2000/svg">
<g filter="url(#filter0_d_15_33)">
<path d="M0.463068 5.89346V1.90909H28.2812V5.89346H16.6179V39H12.1264V5.89346H0.463068ZM14.3722 48.2003C13.5391 48.2003 12.8207 47.9165 12.217 47.3491C11.6254 46.7816 11.3295 46.0994 11.3295 45.3026C11.3295 44.5057 11.6254 43.8235 12.217 43.256C12.8207 42.6886 13.5391 42.4048 14.3722 42.4048C15.2053 42.4048 15.9176 42.6886 16.5092 43.256C17.1129 43.8235 17.4148 44.5057 17.4148 45.3026C17.4148 46.0994 17.1129 46.7816 16.5092 47.3491C15.9176 47.9165 15.2053 48.2003 14.3722 48.2003ZM38.9078 22.2656V39H34.6336V1.90909H38.9078V15.5284H39.27C39.922 14.0916 40.8999 12.9506 42.2039 12.1055C43.52 11.2482 45.2707 10.8196 47.4561 10.8196C49.3517 10.8196 51.0118 11.1999 52.4365 11.9606C53.8612 12.7092 54.966 13.8622 55.7508 15.4197C56.5477 16.9652 56.9461 18.9332 56.9461 21.3239V39H52.672V21.6136C52.672 19.4041 52.0985 17.6957 50.9514 16.4883C49.8165 15.2688 48.2409 14.6591 46.2245 14.6591C44.824 14.6591 43.5683 14.9549 42.4575 15.5465C41.3588 16.1381 40.4894 17.0014 39.8495 18.1364C39.2217 19.2713 38.9078 20.6477 38.9078 22.2656ZM72.9515 39.652C71.1887 39.652 69.589 39.32 68.1522 38.6559C66.7154 37.9798 65.5744 37.0078 64.7292 35.7401C63.8841 34.4602 63.4615 32.9148 63.4615 31.1037C63.4615 29.5099 63.7754 28.218 64.4032 27.228C65.0311 26.2259 65.8702 25.4411 66.9206 24.8736C67.9711 24.3061 69.1301 23.8835 70.3979 23.6058C71.6777 23.3161 72.9636 23.0866 74.2555 22.9176C75.9458 22.7003 77.3162 22.5373 78.3667 22.4286C79.4292 22.3079 80.2019 22.1087 80.6848 21.831C81.1799 21.5533 81.4274 21.0703 81.4274 20.3821V20.2372C81.4274 18.4503 80.9384 17.0618 79.9604 16.0717C78.9945 15.0817 77.5275 14.5866 75.5595 14.5866C73.519 14.5866 71.9192 15.0334 70.7601 15.9268C69.601 16.8203 68.786 17.7741 68.3152 18.7884L64.2583 17.3395C64.9828 15.6491 65.9487 14.3331 67.1561 13.3913C68.3755 12.4375 69.7037 11.7734 71.1404 11.3991C72.5893 11.0128 74.014 10.8196 75.4146 10.8196C76.3081 10.8196 77.3343 10.9283 78.4934 11.1456C79.6646 11.3509 80.7935 11.7795 81.8801 12.4315C82.9789 13.0835 83.8904 14.0675 84.6149 15.3835C85.3393 16.6996 85.7015 18.4624 85.7015 20.6719V39H81.4274V35.233H81.2101C80.9203 35.8366 80.4373 36.4826 79.7612 37.1708C79.0851 37.859 78.1855 38.4446 77.0627 38.9276C75.9398 39.4105 74.5694 39.652 72.9515 39.652ZM73.6035 35.8125C75.2939 35.8125 76.7186 35.4805 77.8777 34.8164C79.0488 34.1523 79.9302 33.2951 80.5218 32.2447C81.1255 31.1942 81.4274 30.0895 81.4274 28.9304V25.0185C81.2463 25.2358 80.8478 25.435 80.2321 25.6161C79.6284 25.7852 78.9281 25.9361 78.1312 26.0689C77.3464 26.1896 76.5797 26.2983 75.8311 26.3949C75.0946 26.4794 74.497 26.5518 74.0382 26.6122C72.9274 26.7571 71.889 26.9925 70.9231 27.3185C69.9693 27.6325 69.1966 28.1094 68.6049 28.7493C68.0254 29.3771 67.7356 30.2344 67.7356 31.321C67.7356 32.8061 68.285 33.929 69.3837 34.6896C70.4945 35.4382 71.9011 35.8125 73.6035 35.8125ZM97.7769 1.90909V39H93.5028V1.90909H97.7769ZM113.791 39.652C112.029 39.652 110.429 39.32 108.992 38.6559C107.555 37.9798 106.414 37.0078 105.569 35.7401C104.724 34.4602 104.301 32.9148 104.301 31.1037C104.301 29.5099 104.615 28.218 105.243 27.228C105.871 26.2259 106.71 25.4411 107.76 24.8736C108.811 24.3061 109.97 23.8835 111.238 23.6058C112.518 23.3161 113.803 23.0866 115.095 22.9176C116.786 22.7003 118.156 22.5373 119.206 22.4286C120.269 22.3079 121.042 22.1087 121.525 21.831C122.02 21.5533 122.267 21.0703 122.267 20.3821V20.2372C122.267 18.4503 121.778 17.0618 120.8 16.0717C119.834 15.0817 118.367 14.5866 116.399 14.5866C114.359 14.5866 112.759 15.0334 111.6 15.9268C110.441 16.8203 109.626 17.7741 109.155 18.7884L105.098 17.3395C105.823 15.6491 106.789 14.3331 107.996 13.3913C109.215 12.4375 110.544 11.7734 111.98 11.3991C113.429 11.0128 114.854 10.8196 116.254 10.8196C117.148 10.8196 118.174 10.9283 119.333 11.1456C120.504 11.3509 121.633 11.7795 122.72 12.4315C123.819 13.0835 124.73 14.0675 125.455 15.3835C126.179 16.6996 126.541 18.4624 126.541 20.6719V39H122.267V35.233H122.05C121.76 35.8366 121.277 36.4826 120.601 37.1708C119.925 37.859 119.025 38.4446 117.903 38.9276C116.78 39.4105 115.409 39.652 113.791 39.652ZM114.443 35.8125C116.134 35.8125 117.558 35.4805 118.718 34.8164C119.889 34.1523 120.77 33.2951 121.362 32.2447C121.965 31.1942 122.267 30.0895 122.267 28.9304V25.0185C122.086 25.2358 121.688 25.435 121.072 25.6161C120.468 25.7852 119.768 25.9361 118.971 26.0689C118.186 26.1896 117.42 26.2983 116.671 26.3949C115.934 26.4794 115.337 26.5518 114.878 26.6122C113.767 26.7571 112.729 26.9925 111.763 27.3185C110.809 27.6325 110.036 28.1094 109.445 28.7493C108.865 29.3771 108.575 30.2344 108.575 31.321C108.575 32.8061 109.125 33.929 110.224 34.6896C111.334 35.4382 112.741 35.8125 114.443 35.8125ZM134.343 39V11.1818H138.617V39H134.343ZM136.516 6.54546C135.683 6.54546 134.964 6.26172 134.361 5.69425C133.769 5.12678 133.473 4.4446 133.473 3.64773C133.473 2.85085 133.769 2.16868 134.361 1.60121C134.964 1.03374 135.683 0.75 136.516 0.75C137.349 0.75 138.061 1.03374 138.653 1.60121C139.257 2.16868 139.559 2.85085 139.559 3.64773C139.559 4.4446 139.257 5.12678 138.653 5.69425C138.061 6.26172 137.349 6.54546 136.516 6.54546ZM158.543 11.1818V14.804H144.127V11.1818H158.543ZM148.329 4.51704H152.603V31.0312C152.603 32.2386 152.778 33.1442 153.128 33.7479C153.49 34.3395 153.949 34.7379 154.504 34.9432C155.072 35.1364 155.67 35.233 156.297 35.233C156.768 35.233 157.155 35.2088 157.456 35.1605C157.758 35.1001 158 35.0518 158.181 35.0156L159.05 38.8551C158.76 38.9638 158.356 39.0724 157.837 39.1811C157.318 39.3018 156.66 39.3622 155.863 39.3622C154.655 39.3622 153.472 39.1026 152.313 38.5835C151.166 38.0643 150.212 37.2734 149.452 36.2109C148.703 35.1484 148.329 33.8082 148.329 32.1903V4.51704ZM176.337 39.5795C173.657 39.5795 171.344 38.9879 169.401 37.8047C167.469 36.6094 165.978 34.9432 164.927 32.8061C163.889 30.657 163.37 28.1577 163.37 25.3082C163.37 22.4588 163.889 19.9474 164.927 17.7741C165.978 15.5888 167.439 13.8864 169.31 12.6669C171.194 11.4354 173.391 10.8196 175.902 10.8196C177.351 10.8196 178.782 11.0611 180.195 11.544C181.607 12.027 182.893 12.8118 184.052 13.8984C185.211 14.973 186.135 16.3977 186.823 18.1726C187.511 19.9474 187.855 22.1328 187.855 24.7287V26.5398H166.412V22.8452H183.509C183.509 21.2756 183.195 19.875 182.567 18.6435C181.951 17.4119 181.07 16.44 179.923 15.7276C178.788 15.0153 177.448 14.6591 175.902 14.6591C174.2 14.6591 172.727 15.0817 171.483 15.9268C170.252 16.7599 169.304 17.8466 168.64 19.1868C167.976 20.527 167.644 21.9638 167.644 23.4972V25.9602C167.644 28.0611 168.006 29.842 168.73 31.3029C169.467 32.7518 170.487 33.8565 171.791 34.6172C173.095 35.3658 174.61 35.7401 176.337 35.7401C177.46 35.7401 178.474 35.5831 179.38 35.2692C180.297 34.9432 181.088 34.4602 181.752 33.8203C182.416 33.1683 182.929 32.3594 183.292 31.3935L187.421 32.5526C186.986 33.9531 186.256 35.1847 185.229 36.2472C184.203 37.2976 182.935 38.1186 181.426 38.7102C179.917 39.2898 178.221 39.5795 176.337 39.5795ZM207.252 5.89346V1.90909H235.07V5.89346H223.407V39H218.915V5.89346H207.252ZM221.161 48.2003C220.328 48.2003 219.61 47.9165 219.006 47.3491C218.414 46.7816 218.119 46.0994 218.119 45.3026C218.119 44.5057 218.414 43.8235 219.006 43.256C219.61 42.6886 220.328 42.4048 221.161 42.4048C221.994 42.4048 222.707 42.6886 223.298 43.256C223.902 43.8235 224.204 44.5057 224.204 45.3026C224.204 46.0994 223.902 46.7816 223.298 47.3491C222.707 47.9165 221.994 48.2003 221.161 48.2003ZM245.697 22.2656V39H241.423V1.90909H245.697V15.5284H246.059C246.711 14.0916 247.689 12.9506 248.993 12.1055C250.309 11.2482 252.06 10.8196 254.245 10.8196C256.141 10.8196 257.801 11.1999 259.226 11.9606C260.65 12.7092 261.755 13.8622 262.54 15.4197C263.337 16.9652 263.735 18.9332 263.735 21.3239V39H259.461V21.6136C259.461 19.4041 258.888 17.6957 257.741 16.4883C256.606 15.2688 255.03 14.6591 253.014 14.6591C251.613 14.6591 250.357 14.9549 249.247 15.5465C248.148 16.1381 247.278 17.0014 246.639 18.1364C246.011 19.2713 245.697 20.6477 245.697 22.2656ZM271.555 39V11.1818H275.829V39H271.555ZM273.728 6.54546C272.895 6.54546 272.176 6.26172 271.573 5.69425C270.981 5.12678 270.685 4.4446 270.685 3.64773C270.685 2.85085 270.981 2.16868 271.573 1.60121C272.176 1.03374 272.895 0.75 273.728 0.75C274.561 0.75 275.273 1.03374 275.865 1.60121C276.469 2.16868 276.77 2.85085 276.77 3.64773C276.77 4.4446 276.469 5.12678 275.865 5.69425C275.273 6.26172 274.561 6.54546 273.728 6.54546ZM291.843 39.652C290.08 39.652 288.481 39.32 287.044 38.6559C285.607 37.9798 284.466 37.0078 283.621 35.7401C282.776 34.4602 282.353 32.9148 282.353 31.1037C282.353 29.5099 282.667 28.218 283.295 27.228C283.923 26.2259 284.762 25.4411 285.812 24.8736C286.863 24.3061 288.022 23.8835 289.29 23.6058C290.569 23.3161 291.855 23.0866 293.147 22.9176C294.837 22.7003 296.208 22.5373 297.258 22.4286C298.321 22.3079 299.093 22.1087 299.576 21.831C300.071 21.5533 300.319 21.0703 300.319 20.3821V20.2372C300.319 18.4503 299.83 17.0618 298.852 16.0717C297.886 15.0817 296.419 14.5866 294.451 14.5866C292.411 14.5866 290.811 15.0334 289.652 15.9268C288.493 16.8203 287.678 17.7741 287.207 18.7884L283.15 17.3395C283.874 15.6491 284.84 14.3331 286.048 13.3913C287.267 12.4375 288.595 11.7734 290.032 11.3991C291.481 11.0128 292.906 10.8196 294.306 10.8196C295.2 10.8196 296.226 10.9283 297.385 11.1456C298.556 11.3509 299.685 11.7795 300.772 12.4315C301.87 13.0835 302.782 14.0675 303.506 15.3835C304.231 16.6996 304.593 18.4624 304.593 20.6719V39H300.319V35.233H300.102C299.812 35.8366 299.329 36.4826 298.653 37.1708C297.977 37.859 297.077 38.4446 295.954 38.9276C294.831 39.4105 293.461 39.652 291.843 39.652ZM292.495 35.8125C294.185 35.8125 295.61 35.4805 296.769 34.8164C297.94 34.1523 298.822 33.2951 299.413 32.2447C300.017 31.1942 300.319 30.0895 300.319 28.9304V25.0185C300.138 25.2358 299.739 25.435 299.124 25.6161C298.52 25.7852 297.82 25.9361 297.023 26.0689C296.238 26.1896 295.471 26.2983 294.723 26.3949C293.986 26.4794 293.389 26.5518 292.93 26.6122C291.819 26.7571 290.781 26.9925 289.815 27.3185C288.861 27.6325 288.088 28.1094 287.497 28.7493C286.917 29.3771 286.627 30.2344 286.627 31.321C286.627 32.8061 287.177 33.929 288.275 34.6896C289.386 35.4382 290.793 35.8125 292.495 35.8125ZM316.669 22.2656V39H312.394V11.1818H316.524V15.5284H316.886C317.538 14.1158 318.528 12.9808 319.856 12.1236C321.184 11.2543 322.899 10.8196 324.999 10.8196C326.883 10.8196 328.531 11.206 329.944 11.9787C331.356 12.7393 332.455 13.8984 333.24 15.456C334.025 17.0014 334.417 18.9574 334.417 21.3239V39H330.143V21.6136C330.143 19.4283 329.575 17.7259 328.441 16.5064C327.306 15.2749 325.748 14.6591 323.768 14.6591C322.404 14.6591 321.184 14.9549 320.11 15.5465C319.047 16.1381 318.208 17.0014 317.592 18.1364C316.976 19.2713 316.669 20.6477 316.669 22.2656Z" fill="white"/>
<path d="M0.463068 5.89346H-0.536932V6.89346H0.463068V5.89346ZM0.463068 1.90909V0.90909H-0.536932V1.90909H0.463068ZM28.2812 1.90909H29.2812V0.90909H28.2812V1.90909ZM28.2812 5.89346V6.89346H29.2812V5.89346H28.2812ZM16.6179 5.89346V4.89346H15.6179V5.89346H16.6179ZM16.6179 39V40H17.6179V39H16.6179ZM12.1264 39H11.1264V40H12.1264V39ZM12.1264 5.89346H13.1264V4.89346H12.1264V5.89346ZM12.217 47.3491L11.5247 48.0708L11.5321 48.0777L12.217 47.3491ZM12.217 43.256L11.532 42.5274L11.5247 42.5344L12.217 43.256ZM16.5092 43.256L15.817 43.9778L15.8243 43.9847L16.5092 43.256ZM16.5092 47.3491L15.8243 46.6204L15.817 46.6274L16.5092 47.3491ZM1.46307 5.89346V1.90909H-0.536932V5.89346H1.46307ZM0.463068 2.90909H28.2812V0.90909H0.463068V2.90909ZM27.2812 1.90909V5.89346H29.2812V1.90909H27.2812ZM28.2812 4.89346H16.6179V6.89346H28.2812V4.89346ZM15.6179 5.89346V39H17.6179V5.89346H15.6179ZM16.6179 38H12.1264V40H16.6179V38ZM13.1264 39V5.89346H11.1264V39H13.1264ZM12.1264 4.89346H0.463068V6.89346H12.1264V4.89346ZM14.3722 47.2003C13.792 47.2003 13.319 47.0125 12.9019 46.6204L11.5321 48.0777C12.3223 48.8206 13.2861 49.2003 14.3722 49.2003V47.2003ZM12.9092 46.6274C12.5078 46.2424 12.3295 45.8183 12.3295 45.3026H10.3295C10.3295 46.3806 10.7429 47.3208 11.5247 48.0708L12.9092 46.6274ZM12.3295 45.3026C12.3295 44.7868 12.5078 44.3627 12.9092 43.9777L11.5247 42.5344C10.7429 43.2843 10.3295 44.2245 10.3295 45.3026H12.3295ZM12.9019 43.9847C13.319 43.5926 13.792 43.4048 14.3722 43.4048V41.4048C13.2861 41.4048 12.3223 41.7845 11.5321 42.5274L12.9019 43.9847ZM14.3722 43.4048C14.9519 43.4048 15.4149 43.5921 15.817 43.9777L17.2015 42.5344C16.4203 41.7851 15.4586 41.4048 14.3722 41.4048V43.4048ZM15.8243 43.9847C16.236 44.3716 16.4148 44.7937 16.4148 45.3026H18.4148C18.4148 44.2176 17.9899 43.2754 17.1941 42.5274L15.8243 43.9847ZM16.4148 45.3026C16.4148 45.8114 16.236 46.2335 15.8243 46.6204L17.1941 48.0777C17.9899 47.3297 18.4148 46.3875 18.4148 45.3026H16.4148ZM15.817 46.6274C15.4149 47.0131 14.9519 47.2003 14.3722 47.2003V49.2003C15.4586 49.2003 16.4203 48.82 17.2015 48.0708L15.817 46.6274ZM38.9078 39V40H39.9078V39H38.9078ZM34.6336 39H33.6336V40H34.6336V39ZM34.6336 1.90909V0.90909H33.6336V1.90909H34.6336ZM38.9078 1.90909H39.9078V0.90909H38.9078V1.90909ZM38.9078 15.5284H37.9078V16.5284H38.9078V15.5284ZM39.27 15.5284V16.5284H39.9143L40.1806 15.9416L39.27 15.5284ZM42.2039 12.1055L42.7478 12.9446L42.7497 12.9434L42.2039 12.1055ZM52.4365 11.9606L51.9655 12.8427L51.9714 12.8458L52.4365 11.9606ZM55.7508 15.4197L54.8577 15.8697L54.862 15.878L55.7508 15.4197ZM56.9461 39V40H57.9461V39H56.9461ZM52.672 39H51.672V40H52.672V39ZM50.9514 16.4883L50.2194 17.1696L50.2264 17.177L50.9514 16.4883ZM42.4575 15.5465L41.9874 14.6639L41.9834 14.666L42.4575 15.5465ZM39.8495 18.1364L38.9784 17.6452L38.9745 17.6523L39.8495 18.1364ZM37.9078 22.2656V39H39.9078V22.2656H37.9078ZM38.9078 38H34.6336V40H38.9078V38ZM35.6336 39V1.90909H33.6336V39H35.6336ZM34.6336 2.90909H38.9078V0.90909H34.6336V2.90909ZM37.9078 1.90909V15.5284H39.9078V1.90909H37.9078ZM38.9078 16.5284H39.27V14.5284H38.9078V16.5284ZM40.1806 15.9416C40.7549 14.6761 41.6069 13.6841 42.7478 12.9446L41.66 11.2663C40.193 12.2172 39.0891 13.5071 38.3593 15.1152L40.1806 15.9416ZM42.7497 12.9434C43.8514 12.2258 45.3914 11.8196 47.4561 11.8196V9.8196C45.1499 9.8196 43.1885 10.2707 41.6581 11.2676L42.7497 12.9434ZM47.4561 11.8196C49.2159 11.8196 50.709 12.1719 51.9655 12.8427L52.9075 11.0784C51.3146 10.228 49.4874 9.8196 47.4561 9.8196V11.8196ZM51.9714 12.8458C53.196 13.4892 54.1585 14.4819 54.8578 15.8697L56.6438 14.9698C55.7735 13.2425 54.5265 11.9291 52.9017 11.0753L51.9714 12.8458ZM54.862 15.878C55.5636 17.2388 55.9461 19.036 55.9461 21.3239H57.9461C57.9461 18.8304 57.5317 16.6916 56.6396 14.9615L54.862 15.878ZM55.9461 21.3239V39H57.9461V21.3239H55.9461ZM56.9461 38H52.672V40H56.9461V38ZM53.672 39V21.6136H51.672V39H53.672ZM53.672 21.6136C53.672 19.2338 53.0515 17.2469 51.6764 15.7995L50.2264 17.177C51.1454 18.1444 51.672 19.5745 51.672 21.6136H53.672ZM51.6835 15.807C50.3203 14.3423 48.4555 13.6591 46.2245 13.6591V15.6591C48.0263 15.6591 49.3127 16.1953 50.2194 17.1696L51.6835 15.807ZM46.2245 13.6591C44.6788 13.6591 43.2586 13.9868 41.9874 14.6639L42.9276 16.4291C43.8779 15.923 44.9691 15.6591 46.2245 15.6591V13.6591ZM41.9834 14.666C40.7106 15.3514 39.7069 16.3532 38.9784 17.6452L40.7206 18.6275C41.272 17.6496 42.0069 16.9249 42.9316 16.427L41.9834 14.666ZM38.9745 17.6523C38.2468 18.9678 37.9078 20.5197 37.9078 22.2656H39.9078C39.9078 20.7758 40.1966 19.5749 40.7246 18.6204L38.9745 17.6523ZM68.1522 38.6559L67.7264 39.5607L67.7326 39.5636L68.1522 38.6559ZM64.7292 35.7401L63.8948 36.2911L63.8972 36.2948L64.7292 35.7401ZM64.4032 27.228L65.2478 27.7635L65.2507 27.7589L64.4032 27.228ZM70.3979 23.6058L70.6119 24.5827L70.6187 24.5811L70.3979 23.6058ZM74.2555 22.9176L74.128 21.9258L74.1258 21.9261L74.2555 22.9176ZM78.3667 22.4286L78.4696 23.4234L78.4796 23.4222L78.3667 22.4286ZM80.6848 21.831L80.1956 20.9588L80.1864 20.9641L80.6848 21.831ZM79.9604 16.0717L79.2446 16.7701L79.249 16.7745L79.9604 16.0717ZM70.7601 15.9268L71.3706 16.7189L71.3706 16.7189L70.7601 15.9268ZM68.3152 18.7884L67.9788 19.7301L68.838 20.0369L69.2222 19.2095L68.3152 18.7884ZM64.2583 17.3395L63.3392 16.9456L62.9201 17.9234L63.922 18.2812L64.2583 17.3395ZM67.1561 13.3913L67.7711 14.1798L67.7722 14.179L67.1561 13.3913ZM71.1404 11.3991L71.3925 12.3669L71.3981 12.3654L71.1404 11.3991ZM78.4934 11.1456L78.3091 12.1285L78.3208 12.1306L78.4934 11.1456ZM81.8801 12.4315L81.3656 13.289L81.3698 13.2914L81.8801 12.4315ZM84.6149 15.3835L83.7388 15.8657L83.7388 15.8658L84.6149 15.3835ZM85.7015 39V40H86.7015V39H85.7015ZM81.4274 39H80.4274V40H81.4274V39ZM81.4274 35.233H82.4274V34.233H81.4274V35.233ZM81.2101 35.233V34.233H80.5808L80.3085 34.8002L81.2101 35.233ZM79.7612 37.1708L80.4745 37.8716L80.4745 37.8716L79.7612 37.1708ZM77.0627 38.9276L76.6676 38.0089L77.0627 38.9276ZM77.8777 34.8164L77.3844 33.9465L77.3806 33.9487L77.8777 34.8164ZM80.5218 32.2447L79.6548 31.7464L79.6505 31.7539L80.5218 32.2447ZM81.4274 25.0185H82.4274V22.2564L80.6592 24.3783L81.4274 25.0185ZM80.2321 25.6161L80.5017 26.5792L80.5142 26.5755L80.2321 25.6161ZM78.1312 26.0689L78.2833 27.0573L78.2956 27.0553L78.1312 26.0689ZM75.8311 26.3949L75.9452 27.3885L75.9591 27.3867L75.8311 26.3949ZM74.0382 26.6122L74.1675 27.6038L74.1686 27.6037L74.0382 26.6122ZM70.9231 27.3185L71.2357 28.2684L71.2429 28.266L70.9231 27.3185ZM68.6049 28.7493L67.8707 28.0704L67.8701 28.071L68.6049 28.7493ZM69.3837 34.6896L68.8144 35.5119L68.8248 35.5189L69.3837 34.6896ZM72.9515 38.652C71.317 38.652 69.8627 38.3448 68.5717 37.7482L67.7326 39.5636C69.3152 40.2951 71.0604 40.652 72.9515 40.652V38.652ZM68.578 37.7511C67.2987 37.1491 66.3011 36.295 65.5613 35.1854L63.8972 36.2948C64.8477 37.7206 66.1321 38.8105 67.7264 39.5607L68.578 37.7511ZM65.5637 35.189C64.8448 34.1004 64.4615 32.7549 64.4615 31.1037H62.4615C62.4615 33.0746 62.9233 34.8201 63.8948 36.2911L65.5637 35.189ZM64.4615 31.1037C64.4615 29.6336 64.7518 28.5456 65.2477 27.7635L63.5587 26.6924C62.799 27.8905 62.4615 29.3863 62.4615 31.1037H64.4615ZM65.2507 27.7589C65.7858 26.9048 66.4961 26.2395 67.3959 25.7534L66.4453 23.9938C65.2443 24.6426 64.2764 25.547 63.5558 26.6971L65.2507 27.7589ZM67.3959 25.7534C68.3574 25.234 69.4275 24.8421 70.6119 24.5827L70.1839 22.629C68.8328 22.9249 67.5847 23.3782 66.4453 23.9938L67.3959 25.7534ZM70.6187 24.5811C71.8687 24.2981 73.1242 24.0742 74.3852 23.9092L74.1258 21.9261C72.8031 22.0991 71.4868 22.334 70.1771 22.6305L70.6187 24.5811ZM74.383 23.9094C76.0695 23.6926 77.4308 23.5308 78.4696 23.4233L78.2638 21.4339C77.2017 21.5438 75.8222 21.7079 74.128 21.9258L74.383 23.9094ZM78.4796 23.4222C79.5759 23.2976 80.5171 23.081 81.1833 22.6979L80.1864 20.9641C79.8867 21.1364 79.2824 21.3181 78.2537 21.435L78.4796 23.4222ZM81.1741 22.7031C82.0566 22.208 82.4274 21.3411 82.4274 20.3821H80.4274C80.4274 20.7996 80.3031 20.8985 80.1956 20.9588L81.1741 22.7031ZM82.4274 20.3821V20.2372H80.4274V20.3821H82.4274ZM82.4274 20.2372C82.4274 18.2653 81.8832 16.5953 80.6718 15.369L79.249 16.7745C79.9936 17.5283 80.4274 18.6353 80.4274 20.2372H82.4274ZM80.6762 15.3734C79.4544 14.1211 77.6816 13.5866 75.5595 13.5866V15.5866C77.3734 15.5866 78.5346 16.0423 79.2446 16.7701L80.6762 15.3734ZM75.5595 13.5866C73.3835 13.5866 71.541 14.0623 70.1496 15.1348L71.3706 16.7189C72.2974 16.0045 73.6545 15.5866 75.5595 15.5866V13.5866ZM70.1496 15.1348C68.9012 16.0971 67.9643 17.1694 67.4082 18.3672L69.2222 19.2095C69.6078 18.3789 70.3008 17.5435 71.3706 16.7189L70.1496 15.1348ZM68.6515 17.8466L64.5947 16.3977L63.922 18.2812L67.9788 19.7301L68.6515 17.8466ZM65.1775 17.7334C65.8488 16.1671 66.7211 14.9989 67.7711 14.1798L66.541 12.6028C65.1763 13.6673 64.1168 15.1312 63.3392 16.9456L65.1775 17.7334ZM67.7722 14.179C68.8886 13.3058 70.0938 12.7052 71.3925 12.3669L70.8884 10.4314C69.3135 10.8417 67.8625 11.5692 66.54 12.6037L67.7722 14.179ZM71.3981 12.3654C72.7688 11.9999 74.1069 11.8196 75.4146 11.8196V9.8196C73.9211 9.8196 72.4098 10.0257 70.8828 10.4329L71.3981 12.3654ZM75.4146 11.8196C76.2303 11.8196 77.1928 11.9192 78.3091 12.1285L78.6777 10.1627C77.4759 9.93738 76.3859 9.8196 75.4146 9.8196V11.8196ZM78.3208 12.1306C79.3634 12.3133 80.3772 12.6959 81.3657 13.289L82.3946 11.574C81.2098 10.8631 79.9658 10.3884 78.6661 10.1606L78.3208 12.1306ZM81.3698 13.2914C82.29 13.8375 83.0852 14.6783 83.7388 15.8657L85.4909 14.9013C84.6957 13.4567 83.6677 12.3294 82.3905 11.5715L81.3698 13.2914ZM83.7388 15.8658C84.3526 16.9807 84.7015 18.5572 84.7015 20.6719H86.7015C86.7015 18.3675 86.3261 16.4184 85.4909 14.9013L83.7388 15.8658ZM84.7015 20.6719V39H86.7015V20.6719H84.7015ZM85.7015 38H81.4274V40H85.7015V38ZM82.4274 39V35.233H80.4274V39H82.4274ZM81.4274 34.233H81.2101V36.233H81.4274V34.233ZM80.3085 34.8002C80.0823 35.2716 79.6779 35.8287 79.0479 36.47L80.4745 37.8716C81.1968 37.1365 81.7583 36.4017 82.1116 35.6657L80.3085 34.8002ZM79.0479 36.47C78.4834 37.0445 77.7018 37.5641 76.6676 38.0089L77.4578 39.8462C78.6693 39.3251 79.6867 38.6735 80.4745 37.8716L79.0479 36.47ZM76.6676 38.0089C75.7029 38.4238 74.4753 38.652 72.9515 38.652V40.652C74.6635 40.652 76.1768 40.3972 77.4578 39.8462L76.6676 38.0089ZM73.6035 36.8125C75.4227 36.8125 77.0292 36.455 78.3748 35.6841L77.3806 33.9487C76.4079 34.506 75.165 34.8125 73.6035 34.8125V36.8125ZM78.3709 35.6863C79.6813 34.9433 80.7022 33.9622 81.3931 32.7354L79.6505 31.7539C79.1582 32.628 78.4164 33.3614 77.3844 33.9465L78.3709 35.6863ZM81.3889 32.743C82.0756 31.5481 82.4274 30.2724 82.4274 28.9304H80.4274C80.4274 29.9066 80.1755 30.8404 79.6548 31.7464L81.3889 32.743ZM82.4274 28.9304V25.0185H80.4274V28.9304H82.4274ZM80.6592 24.3783C80.6931 24.3376 80.6845 24.367 80.5455 24.4364C80.4168 24.5008 80.2235 24.5763 79.9499 24.6568L80.5142 26.5755C80.8564 26.4748 81.1702 26.3602 81.4399 26.2253C81.6994 26.0956 81.9806 25.9167 82.1956 25.6586L80.6592 24.3783ZM79.9624 24.6532C79.4016 24.8102 78.7378 24.954 77.9668 25.0825L78.2956 27.0553C79.1184 26.9181 79.8552 26.7601 80.5017 26.5791L79.9624 24.6532ZM77.9792 25.0805C77.202 25.2001 76.4433 25.3076 75.7032 25.4031L75.9591 27.3867C76.7161 27.289 77.4909 27.1792 78.2833 27.0573L77.9792 25.0805ZM75.7171 25.4014C74.978 25.4862 74.3742 25.5594 73.9077 25.6208L74.1686 27.6037C74.6197 27.5443 75.2113 27.4726 75.9452 27.3884L75.7171 25.4014ZM73.9088 25.6206C72.7396 25.7731 71.6369 26.0222 70.6033 26.371L71.2429 28.266C72.1412 27.9629 73.1152 27.7411 74.1675 27.6038L73.9088 25.6206ZM70.6105 26.3687C69.5202 26.7275 68.5941 27.288 67.8707 28.0704L69.3392 29.4281C69.7991 28.9308 70.4184 28.5374 71.2357 28.2684L70.6105 26.3687ZM67.8701 28.071C67.0774 28.9298 66.7356 30.0539 66.7356 31.321H68.7356C68.7356 30.4149 68.9734 29.8245 69.3397 29.4276L67.8701 28.071ZM66.7356 31.321C66.7356 33.0916 67.4127 34.5413 68.8145 35.5118L69.9529 33.8674C69.1573 33.3166 68.7356 32.5206 68.7356 31.321H66.7356ZM68.8248 35.5189C70.1404 36.4054 71.7558 36.8125 73.6035 36.8125V34.8125C72.0464 34.8125 70.8486 34.471 69.9426 33.8604L68.8248 35.5189ZM97.7769 1.90909H98.7769V0.90909H97.7769V1.90909ZM97.7769 39V40H98.7769V39H97.7769ZM93.5028 39H92.5028V40H93.5028V39ZM93.5028 1.90909V0.90909H92.5028V1.90909H93.5028ZM96.7769 1.90909V39H98.7769V1.90909H96.7769ZM97.7769 38H93.5028V40H97.7769V38ZM94.5028 39V1.90909H92.5028V39H94.5028ZM93.5028 2.90909H97.7769V0.90909H93.5028V2.90909ZM108.992 38.6559L108.566 39.5607L108.572 39.5636L108.992 38.6559ZM105.569 35.7401L104.735 36.2911L104.737 36.2948L105.569 35.7401ZM105.243 27.228L106.088 27.7635L106.09 27.7589L105.243 27.228ZM111.238 23.6058L111.452 24.5827L111.459 24.5811L111.238 23.6058ZM115.095 22.9176L114.968 21.9258L114.966 21.9261L115.095 22.9176ZM119.206 22.4286L119.309 23.4234L119.319 23.4222L119.206 22.4286ZM121.525 21.831L121.035 20.9588L121.026 20.9641L121.525 21.831ZM120.8 16.0717L120.084 16.7701L120.089 16.7745L120.8 16.0717ZM111.6 15.9268L112.21 16.7189L112.21 16.7189L111.6 15.9268ZM109.155 18.7884L108.819 19.7301L109.678 20.0369L110.062 19.2095L109.155 18.7884ZM105.098 17.3395L104.179 16.9456L103.76 17.9234L104.762 18.2812L105.098 17.3395ZM107.996 13.3913L108.611 14.1798L108.612 14.179L107.996 13.3913ZM111.98 11.3991L112.232 12.3669L112.238 12.3654L111.98 11.3991ZM119.333 11.1456L119.149 12.1285L119.161 12.1306L119.333 11.1456ZM122.72 12.4315L122.205 13.289L122.21 13.2914L122.72 12.4315ZM125.455 15.3835L124.579 15.8657L124.579 15.8658L125.455 15.3835ZM126.541 39V40H127.541V39H126.541ZM122.267 39H121.267V40H122.267V39ZM122.267 35.233H123.267V34.233H122.267V35.233ZM122.05 35.233V34.233H121.421L121.148 34.8002L122.05 35.233ZM120.601 37.1708L121.314 37.8716L121.314 37.8716L120.601 37.1708ZM117.903 38.9276L117.507 38.0089L117.903 38.9276ZM118.718 34.8164L118.224 33.9465L118.22 33.9487L118.718 34.8164ZM121.362 32.2447L120.495 31.7464L120.49 31.7539L121.362 32.2447ZM122.267 25.0185H123.267V22.2564L121.499 24.3783L122.267 25.0185ZM121.072 25.6161L121.342 26.5792L121.354 26.5755L121.072 25.6161ZM118.971 26.0689L119.123 27.0573L119.135 27.0553L118.971 26.0689ZM116.671 26.3949L116.785 27.3885L116.799 27.3867L116.671 26.3949ZM114.878 26.6122L115.007 27.6038L115.008 27.6037L114.878 26.6122ZM111.763 27.3185L112.076 28.2684L112.083 28.266L111.763 27.3185ZM109.445 28.7493L108.711 28.0704L108.71 28.071L109.445 28.7493ZM110.224 34.6896L109.654 35.5119L109.665 35.5189L110.224 34.6896ZM113.791 38.652C112.157 38.652 110.703 38.3448 109.412 37.7482L108.572 39.5636C110.155 40.2951 111.9 40.652 113.791 40.652V38.652ZM109.418 37.7511C108.139 37.1491 107.141 36.295 106.401 35.1854L104.737 36.2948C105.688 37.7206 106.972 38.8105 108.566 39.5607L109.418 37.7511ZM106.404 35.189C105.685 34.1004 105.301 32.7549 105.301 31.1037H103.301C103.301 33.0746 103.763 34.8201 104.735 36.2911L106.404 35.189ZM105.301 31.1037C105.301 29.6336 105.592 28.5456 106.088 27.7635L104.399 26.6924C103.639 27.8905 103.301 29.3863 103.301 31.1037H105.301ZM106.09 27.7589C106.626 26.9048 107.336 26.2395 108.236 25.7534L107.285 23.9938C106.084 24.6426 105.116 25.547 104.396 26.6971L106.09 27.7589ZM108.236 25.7534C109.197 25.234 110.267 24.8421 111.452 24.5827L111.024 22.629C109.673 22.9249 108.425 23.3782 107.285 23.9938L108.236 25.7534ZM111.459 24.5811C112.709 24.2981 113.964 24.0742 115.225 23.9092L114.966 21.9261C113.643 22.0991 112.327 22.334 111.017 22.6305L111.459 24.5811ZM115.223 23.9094C116.909 23.6926 118.271 23.5308 119.309 23.4233L119.104 21.4339C118.042 21.5438 116.662 21.7079 114.968 21.9258L115.223 23.9094ZM119.319 23.4222C120.416 23.2976 121.357 23.081 122.023 22.6979L121.026 20.9641C120.727 21.1364 120.122 21.3181 119.094 21.435L119.319 23.4222ZM122.014 22.7031C122.896 22.208 123.267 21.3411 123.267 20.3821H121.267C121.267 20.7996 121.143 20.8985 121.035 20.9588L122.014 22.7031ZM123.267 20.3821V20.2372H121.267V20.3821H123.267ZM123.267 20.2372C123.267 18.2653 122.723 16.5953 121.512 15.369L120.089 16.7745C120.833 17.5283 121.267 18.6353 121.267 20.2372H123.267ZM121.516 15.3734C120.294 14.1211 118.521 13.5866 116.399 13.5866V15.5866C118.213 15.5866 119.374 16.0423 120.084 16.7701L121.516 15.3734ZM116.399 13.5866C114.223 13.5866 112.381 14.0623 110.989 15.1348L112.21 16.7189C113.137 16.0045 114.494 15.5866 116.399 15.5866V13.5866ZM110.989 15.1348C109.741 16.0971 108.804 17.1694 108.248 18.3672L110.062 19.2095C110.448 18.3789 111.141 17.5435 112.21 16.7189L110.989 15.1348ZM109.491 17.8466L105.435 16.3977L104.762 18.2812L108.819 19.7301L109.491 17.8466ZM106.017 17.7334C106.689 16.1671 107.561 14.9989 108.611 14.1798L107.381 12.6028C106.016 13.6673 104.957 15.1312 104.179 16.9456L106.017 17.7334ZM108.612 14.179C109.728 13.3058 110.934 12.7052 112.232 12.3669L111.728 10.4314C110.153 10.8417 108.702 11.5692 107.38 12.6037L108.612 14.179ZM112.238 12.3654C113.609 11.9999 114.947 11.8196 116.254 11.8196V9.8196C114.761 9.8196 113.25 10.0257 111.723 10.4329L112.238 12.3654ZM116.254 11.8196C117.07 11.8196 118.033 11.9192 119.149 12.1285L119.518 10.1627C118.316 9.93738 117.226 9.8196 116.254 9.8196V11.8196ZM119.161 12.1306C120.203 12.3133 121.217 12.6959 122.205 13.289L123.234 11.574C122.05 10.8631 120.806 10.3884 119.506 10.1606L119.161 12.1306ZM122.21 13.2914C123.13 13.8375 123.925 14.6783 124.579 15.8657L126.331 14.9013C125.536 13.4567 124.508 12.3294 123.23 11.5715L122.21 13.2914ZM124.579 15.8658C125.192 16.9807 125.541 18.5572 125.541 20.6719H127.541C127.541 18.3675 127.166 16.4184 126.331 14.9013L124.579 15.8658ZM125.541 20.6719V39H127.541V20.6719H125.541ZM126.541 38H122.267V40H126.541V38ZM123.267 39V35.233H121.267V39H123.267ZM122.267 34.233H122.05V36.233H122.267V34.233ZM121.148 34.8002C120.922 35.2716 120.518 35.8287 119.888 36.47L121.314 37.8716C122.037 37.1365 122.598 36.4017 122.951 35.6657L121.148 34.8002ZM119.888 36.47C119.323 37.0445 118.542 37.5641 117.507 38.0089L118.298 39.8462C119.509 39.3251 120.527 38.6735 121.314 37.8716L119.888 36.47ZM117.507 38.0089C116.543 38.4238 115.315 38.652 113.791 38.652V40.652C115.503 40.652 117.017 40.3972 118.298 39.8462L117.507 38.0089ZM114.443 36.8125C116.263 36.8125 117.869 36.455 119.215 35.6841L118.22 33.9487C117.248 34.506 116.005 34.8125 114.443 34.8125V36.8125ZM119.211 35.6863C120.521 34.9433 121.542 33.9622 122.233 32.7354L120.49 31.7539C119.998 32.628 119.256 33.3614 118.224 33.9465L119.211 35.6863ZM122.229 32.743C122.915 31.5481 123.267 30.2724 123.267 28.9304H121.267C121.267 29.9066 121.015 30.8404 120.495 31.7464L122.229 32.743ZM123.267 28.9304V25.0185H121.267V28.9304H123.267ZM121.499 24.3783C121.533 24.3376 121.524 24.367 121.385 24.4364C121.257 24.5008 121.063 24.5763 120.79 24.6568L121.354 26.5755C121.696 26.4748 122.01 26.3602 122.28 26.2253C122.539 26.0956 122.82 25.9167 123.035 25.6586L121.499 24.3783ZM120.802 24.6532C120.241 24.8102 119.578 24.954 118.807 25.0825L119.135 27.0553C119.958 26.9181 120.695 26.7601 121.342 26.5791L120.802 24.6532ZM118.819 25.0805C118.042 25.2001 117.283 25.3076 116.543 25.4031L116.799 27.3867C117.556 27.289 118.331 27.1792 119.123 27.0573L118.819 25.0805ZM116.557 25.4014C115.818 25.4862 115.214 25.5594 114.748 25.6208L115.008 27.6037C115.46 27.5443 116.051 27.4726 116.785 27.3884L116.557 25.4014ZM114.749 25.6206C113.579 25.7731 112.477 26.0222 111.443 26.371L112.083 28.266C112.981 27.9629 113.955 27.7411 115.007 27.6038L114.749 25.6206ZM111.45 26.3687C110.36 26.7275 109.434 27.288 108.711 28.0704L110.179 29.4281C110.639 28.9308 111.258 28.5374 112.076 28.2684L111.45 26.3687ZM108.71 28.071C107.917 28.9298 107.575 30.0539 107.575 31.321H109.575C109.575 30.4149 109.813 29.8245 110.18 29.4276L108.71 28.071ZM107.575 31.321C107.575 33.0916 108.253 34.5413 109.654 35.5118L110.793 33.8674C109.997 33.3166 109.575 32.5206 109.575 31.321H107.575ZM109.665 35.5189C110.98 36.4054 112.596 36.8125 114.443 36.8125V34.8125C112.886 34.8125 111.688 34.471 110.782 33.8604L109.665 35.5189ZM134.343 39H133.343V40H134.343V39ZM134.343 11.1818V10.1818H133.343V11.1818H134.343ZM138.617 11.1818H139.617V10.1818H138.617V11.1818ZM138.617 39V40H139.617V39H138.617ZM134.361 5.69425L133.668 6.41596L133.676 6.42287L134.361 5.69425ZM134.361 1.60121L133.676 0.872541L133.668 0.879525L134.361 1.60121ZM138.653 1.60121L137.961 2.32292L137.968 2.32983L138.653 1.60121ZM138.653 5.69425L137.968 4.96558L137.961 4.97257L138.653 5.69425ZM135.343 39V11.1818H133.343V39H135.343ZM134.343 12.1818H138.617V10.1818H134.343V12.1818ZM137.617 11.1818V39H139.617V11.1818H137.617ZM138.617 38H134.343V40H138.617V38ZM136.516 5.54546C135.936 5.54546 135.463 5.3577 135.046 4.96562L133.676 6.42287C134.466 7.16574 135.43 7.54546 136.516 7.54546V5.54546ZM135.053 4.97256C134.652 4.58758 134.473 4.16346 134.473 3.64773H132.473C132.473 4.72574 132.887 5.66597 133.668 6.41593L135.053 4.97256ZM134.473 3.64773C134.473 3.13199 134.652 2.70787 135.053 2.32289L133.668 0.879525C132.887 1.62948 132.473 2.56971 132.473 3.64773H134.473ZM135.046 2.32983C135.463 1.93775 135.936 1.75 136.516 1.75V-0.25C135.43 -0.25 134.466 0.129718 133.676 0.872578L135.046 2.32983ZM136.516 1.75C137.096 1.75 137.559 1.93722 137.961 2.32289L139.345 0.879524C138.564 0.130246 137.602 -0.25 136.516 -0.25V1.75ZM137.968 2.32983C138.38 2.71677 138.559 3.13892 138.559 3.64773H140.559C140.559 2.56279 140.134 1.62059 139.338 0.872579L137.968 2.32983ZM138.559 3.64773C138.559 4.15654 138.38 4.57868 137.968 4.96562L139.338 6.42287C140.134 5.67487 140.559 4.73267 140.559 3.64773H138.559ZM137.961 4.97257C137.559 5.35823 137.096 5.54546 136.516 5.54546V7.54546C137.602 7.54546 138.564 7.16521 139.345 6.41593L137.961 4.97257ZM158.543 11.1818H159.543V10.1818H158.543V11.1818ZM158.543 14.804V15.804H159.543V14.804H158.543ZM144.127 14.804H143.127V15.804H144.127V14.804ZM144.127 11.1818V10.1818H143.127V11.1818H144.127ZM148.329 4.51704V3.51704H147.329V4.51704H148.329ZM152.603 4.51704H153.603V3.51704H152.603V4.51704ZM153.128 33.7479L152.263 34.2496L152.269 34.2599L152.275 34.27L153.128 33.7479ZM154.504 34.9432L154.158 35.8812L154.17 35.8857L154.182 35.8898L154.504 34.9432ZM157.456 35.1605L157.614 36.148L157.634 36.1449L157.653 36.1411L157.456 35.1605ZM158.181 35.0156L159.156 34.7948L158.941 33.8438L157.985 34.035L158.181 35.0156ZM159.05 38.8551L159.401 39.7914L160.218 39.4851L160.026 38.6343L159.05 38.8551ZM157.837 39.1811L157.632 38.2023L157.621 38.2046L157.61 38.2071L157.837 39.1811ZM152.313 38.5835L151.901 39.4945L151.904 39.4961L152.313 38.5835ZM149.452 36.2109L148.634 36.7869L148.638 36.793L149.452 36.2109ZM157.543 11.1818V14.804H159.543V11.1818H157.543ZM158.543 13.804H144.127V15.804H158.543V13.804ZM145.127 14.804V11.1818H143.127V14.804H145.127ZM144.127 12.1818H158.543V10.1818H144.127V12.1818ZM148.329 5.51704H152.603V3.51704H148.329V5.51704ZM151.603 4.51704V31.0312H153.603V4.51704H151.603ZM151.603 31.0312C151.603 32.3025 151.781 33.4192 152.263 34.2496L153.993 33.2462C153.774 32.8691 153.603 32.1747 153.603 31.0312H151.603ZM152.275 34.27C152.734 35.0189 153.357 35.5852 154.158 35.8812L154.851 34.0052C154.541 33.8906 154.247 33.6601 153.981 33.2257L152.275 34.27ZM154.182 35.8898C154.858 36.12 155.565 36.233 156.297 36.233V34.233C155.774 34.233 155.286 34.1527 154.827 33.9965L154.182 35.8898ZM156.297 36.233C156.796 36.233 157.24 36.2078 157.614 36.148L157.299 34.1731C157.069 34.2098 156.74 34.233 156.297 34.233V36.233ZM157.653 36.1411C157.954 36.0807 158.196 36.0324 158.377 35.9962L157.985 34.035C157.804 34.0713 157.562 34.1196 157.26 34.1799L157.653 36.1411ZM157.206 35.2365L158.075 39.0759L160.026 38.6343L159.156 34.7948L157.206 35.2365ZM158.699 37.9188C158.479 38.0014 158.131 38.0978 157.632 38.2023L158.042 40.1599C158.581 40.047 159.042 39.9261 159.401 39.7914L158.699 37.9188ZM157.61 38.2071C157.192 38.3043 156.617 38.3622 155.863 38.3622V40.3622C156.702 40.3622 157.443 40.2994 158.063 40.1551L157.61 38.2071ZM155.863 38.3622C154.804 38.3622 153.759 38.1355 152.722 37.6708L151.904 39.4961C153.185 40.0698 154.507 40.3622 155.863 40.3622V38.3622ZM152.725 37.6724C151.745 37.2286 150.927 36.554 150.265 35.6288L148.638 36.793C149.497 37.9929 150.587 38.9 151.901 39.4945L152.725 37.6724ZM150.269 35.635C149.666 34.7784 149.329 33.653 149.329 32.1903H147.329C147.329 33.9635 147.74 35.5185 148.634 36.7869L150.269 35.635ZM149.329 32.1903V4.51704H147.329V32.1903H149.329ZM169.401 37.8047L168.874 38.6551L168.881 38.6589L169.401 37.8047ZM164.927 32.8061L164.027 33.2411L164.03 33.2472L164.927 32.8061ZM164.927 17.7741L164.026 17.3409L164.025 17.343L164.927 17.7741ZM169.31 12.6669L169.856 13.5047L169.857 13.5039L169.31 12.6669ZM180.195 11.544L180.518 10.5978L180.518 10.5978L180.195 11.544ZM184.052 13.8984L183.368 14.628L183.372 14.6318L184.052 13.8984ZM186.823 18.1726L187.756 17.8111L187.756 17.8111L186.823 18.1726ZM187.855 26.5398V27.5398H188.855V26.5398H187.855ZM166.412 26.5398H165.412V27.5398H166.412V26.5398ZM166.412 22.8452V21.8452H165.412V22.8452H166.412ZM183.509 22.8452V23.8452H184.509V22.8452H183.509ZM182.567 18.6435L181.673 19.0907L181.676 19.0977L182.567 18.6435ZM179.923 15.7276L179.391 16.5746L179.395 16.5771L179.923 15.7276ZM171.483 15.9268L172.044 16.7551L172.045 16.7539L171.483 15.9268ZM168.64 19.1868L167.744 18.7428L167.744 18.7428L168.64 19.1868ZM168.73 31.3029L167.835 31.7472L167.839 31.7561L168.73 31.3029ZM171.791 34.6172L171.287 35.481L171.293 35.4844L171.791 34.6172ZM179.38 35.2692L179.707 36.214L179.714 36.2115L179.38 35.2692ZM181.752 33.8203L182.446 34.5404L182.453 34.5339L181.752 33.8203ZM183.292 31.3935L183.562 30.4307L182.678 30.1825L182.355 31.0423L183.292 31.3935ZM187.421 32.5526L188.376 32.849L188.68 31.8675L187.691 31.5898L187.421 32.5526ZM185.229 36.2472L185.945 36.946L185.949 36.9419L185.229 36.2472ZM181.426 38.7102L181.785 39.6438L181.791 39.6413L181.426 38.7102ZM176.337 38.5795C173.807 38.5795 171.682 38.0226 169.921 36.9505L168.881 38.6589C171.007 39.9533 173.506 40.5795 176.337 40.5795V38.5795ZM169.927 36.9543C168.163 35.8627 166.796 34.342 165.825 32.365L164.03 33.2472C165.159 35.5444 166.775 37.356 168.874 38.6551L169.927 36.9543ZM165.828 32.3711C164.866 30.3814 164.37 28.0359 164.37 25.3082H162.37C162.37 28.2795 162.911 30.9325 164.027 33.2411L165.828 32.3711ZM164.37 25.3082C164.37 22.5809 164.866 20.2215 165.83 18.2052L164.025 17.343C162.912 19.6734 162.37 22.3367 162.37 25.3082H164.37ZM165.828 18.2074C166.807 16.1722 168.151 14.6159 169.856 13.5047L168.764 11.8291C166.726 13.1569 165.149 15.0053 164.026 17.3409L165.828 18.2074ZM169.857 13.5039C171.56 12.3908 173.562 11.8196 175.902 11.8196V9.8196C173.22 9.8196 170.827 10.4799 168.763 11.8299L169.857 13.5039ZM175.902 11.8196C177.238 11.8196 178.559 12.0418 179.871 12.4903L180.518 10.5978C179.005 10.0803 177.465 9.8196 175.902 9.8196V11.8196ZM179.871 12.4903C181.141 12.9244 182.306 13.632 183.368 14.628L184.736 13.1689C183.48 11.9916 182.073 11.1295 180.518 10.5978L179.871 12.4903ZM183.372 14.6318C184.4 15.5842 185.246 16.8722 185.891 18.5341L187.756 17.8111C187.024 15.9232 186.023 14.3618 184.732 13.1651L183.372 14.6318ZM185.891 18.5341C186.521 20.1601 186.855 22.2144 186.855 24.7287H188.855C188.855 22.0512 188.501 19.7348 187.756 17.8111L185.891 18.5341ZM186.855 24.7287V26.5398H188.855V24.7287H186.855ZM187.855 25.5398H166.412V27.5398H187.855V25.5398ZM167.412 26.5398V22.8452H165.412V26.5398H167.412ZM166.412 23.8452H183.509V21.8452H166.412V23.8452ZM184.509 22.8452C184.509 21.1392 184.167 19.5795 183.458 18.1893L181.676 19.0977C182.223 20.1705 182.509 21.4119 182.509 22.8452H184.509ZM183.462 18.1963C182.765 16.8027 181.758 15.6901 180.451 14.8781L179.395 16.5771C180.382 17.1899 181.138 18.0211 181.673 19.0907L183.462 18.1963ZM180.455 14.8806C179.137 14.0537 177.606 13.6591 175.902 13.6591V15.6591C177.289 15.6591 178.439 15.9768 179.391 16.5746L180.455 14.8806ZM175.902 13.6591C174.027 13.6591 172.352 14.1274 170.921 15.0998L172.045 16.7539C173.102 16.0359 174.373 15.6591 175.902 15.6591V13.6591ZM170.923 15.0986C169.547 16.0292 168.484 17.2486 167.744 18.7428L169.536 19.6308C170.124 18.4446 170.956 17.4907 172.044 16.7551L170.923 15.0986ZM167.744 18.7428C167.01 20.2246 166.644 21.8138 166.644 23.4972H168.644C168.644 22.1138 168.942 20.8294 169.536 19.6308L167.744 18.7428ZM166.644 23.4972V25.9602H168.644V23.4972H166.644ZM166.644 25.9602C166.644 28.1722 167.025 30.1142 167.835 31.7472L169.626 30.8587C168.987 29.5697 168.644 27.9499 168.644 25.9602H166.644ZM167.839 31.7561C168.656 33.3625 169.805 34.616 171.287 35.481L172.295 33.7534C171.17 33.097 170.278 32.1411 169.622 30.8498L167.839 31.7561ZM171.293 35.4844C172.77 36.3322 174.462 36.7401 176.337 36.7401V34.7401C174.759 34.7401 173.42 34.3993 172.289 33.7499L171.293 35.4844ZM176.337 36.7401C177.553 36.7401 178.68 36.5701 179.707 36.214L179.052 34.3243C178.268 34.5961 177.367 34.7401 176.337 34.7401V36.7401ZM179.714 36.2115C180.759 35.8405 181.674 35.2846 182.446 34.5404L181.058 33.1002C180.502 33.6359 179.836 34.0458 179.045 34.3269L179.714 36.2115ZM182.453 34.5339C183.232 33.7691 183.82 32.8321 184.228 31.7446L182.355 31.0423C182.039 31.8866 181.601 32.5676 181.052 33.1067L182.453 34.5339ZM183.021 32.3563L187.151 33.5153L187.691 31.5898L183.562 30.4307L183.021 32.3563ZM186.466 32.2562C186.078 33.5062 185.429 34.6016 184.51 35.5524L185.949 36.9419C187.083 35.7677 187.894 34.4001 188.376 32.849L186.466 32.2562ZM184.514 35.5483C183.597 36.4873 182.452 37.2339 181.061 37.7792L181.791 39.6413C183.418 39.0033 184.81 38.1079 185.945 36.946L184.514 35.5483ZM181.068 37.7767C179.69 38.3057 178.118 38.5795 176.337 38.5795V40.5795C178.323 40.5795 180.144 40.2739 181.785 39.6438L181.068 37.7767ZM207.252 5.89346H206.252V6.89346H207.252V5.89346ZM207.252 1.90909V0.90909H206.252V1.90909H207.252ZM235.07 1.90909H236.07V0.90909H235.07V1.90909ZM235.07 5.89346V6.89346H236.07V5.89346H235.07ZM223.407 5.89346V4.89346H222.407V5.89346H223.407ZM223.407 39V40H224.407V39H223.407ZM218.915 39H217.915V40H218.915V39ZM218.915 5.89346H219.915V4.89346H218.915V5.89346ZM219.006 47.3491L218.314 48.0708L218.321 48.0777L219.006 47.3491ZM219.006 43.256L218.321 42.5274L218.314 42.5344L219.006 43.256ZM223.298 43.256L222.606 43.9778L222.613 43.9847L223.298 43.256ZM223.298 47.3491L222.613 46.6204L222.606 46.6274L223.298 47.3491ZM208.252 5.89346V1.90909H206.252V5.89346H208.252ZM207.252 2.90909H235.07V0.90909H207.252V2.90909ZM234.07 1.90909V5.89346H236.07V1.90909H234.07ZM235.07 4.89346H223.407V6.89346H235.07V4.89346ZM222.407 5.89346V39H224.407V5.89346H222.407ZM223.407 38H218.915V40H223.407V38ZM219.915 39V5.89346H217.915V39H219.915ZM218.915 4.89346H207.252V6.89346H218.915V4.89346ZM221.161 47.2003C220.581 47.2003 220.108 47.0125 219.691 46.6204L218.321 48.0777C219.111 48.8206 220.075 49.2003 221.161 49.2003V47.2003ZM219.698 46.6274C219.297 46.2424 219.119 45.8183 219.119 45.3026H217.119C217.119 46.3806 217.532 47.3208 218.314 48.0708L219.698 46.6274ZM219.119 45.3026C219.119 44.7868 219.297 44.3627 219.698 43.9777L218.314 42.5344C217.532 43.2843 217.119 44.2245 217.119 45.3026H219.119ZM219.691 43.9847C220.108 43.5926 220.581 43.4048 221.161 43.4048V41.4048C220.075 41.4048 219.111 41.7845 218.321 42.5274L219.691 43.9847ZM221.161 43.4048C221.741 43.4048 222.204 43.5921 222.606 43.9777L223.991 42.5344C223.209 41.7851 222.248 41.4048 221.161 41.4048V43.4048ZM222.613 43.9847C223.025 44.3716 223.204 44.7937 223.204 45.3026H225.204C225.204 44.2176 224.779 43.2754 223.983 42.5274L222.613 43.9847ZM223.204 45.3026C223.204 45.8114 223.025 46.2335 222.613 46.6204L223.983 48.0777C224.779 47.3297 225.204 46.3875 225.204 45.3026H223.204ZM222.606 46.6274C222.204 47.0131 221.741 47.2003 221.161 47.2003V49.2003C222.248 49.2003 223.209 48.82 223.991 48.0708L222.606 46.6274ZM245.697 39V40H246.697V39H245.697ZM241.423 39H240.423V40H241.423V39ZM241.423 1.90909V0.90909H240.423V1.90909H241.423ZM245.697 1.90909H246.697V0.90909H245.697V1.90909ZM245.697 15.5284H244.697V16.5284H245.697V15.5284ZM246.059 15.5284V16.5284H246.703L246.97 15.9416L246.059 15.5284ZM248.993 12.1055L249.537 12.9446L249.539 12.9434L248.993 12.1055ZM259.226 11.9606L258.755 12.8427L258.76 12.8458L259.226 11.9606ZM262.54 15.4197L261.647 15.8697L261.651 15.878L262.54 15.4197ZM263.735 39V40H264.735V39H263.735ZM259.461 39H258.461V40H259.461V39ZM257.741 16.4883L257.008 17.1696L257.016 17.177L257.741 16.4883ZM249.247 15.5465L248.776 14.6639L248.772 14.666L249.247 15.5465ZM246.639 18.1364L245.767 17.6452L245.764 17.6523L246.639 18.1364ZM244.697 22.2656V39H246.697V22.2656H244.697ZM245.697 38H241.423V40H245.697V38ZM242.423 39V1.90909H240.423V39H242.423ZM241.423 2.90909H245.697V0.90909H241.423V2.90909ZM244.697 1.90909V15.5284H246.697V1.90909H244.697ZM245.697 16.5284H246.059V14.5284H245.697V16.5284ZM246.97 15.9416C247.544 14.6761 248.396 13.6841 249.537 12.9446L248.449 11.2663C246.982 12.2172 245.878 13.5071 245.148 15.1152L246.97 15.9416ZM249.539 12.9434C250.641 12.2258 252.18 11.8196 254.245 11.8196V9.8196C251.939 9.8196 249.978 10.2707 248.447 11.2676L249.539 12.9434ZM254.245 11.8196C256.005 11.8196 257.498 12.1719 258.755 12.8427L259.697 11.0784C258.104 10.228 256.276 9.8196 254.245 9.8196V11.8196ZM258.76 12.8458C259.985 13.4892 260.948 14.4819 261.647 15.8697L263.433 14.9698C262.563 13.2425 261.316 11.9291 259.691 11.0753L258.76 12.8458ZM261.651 15.878C262.353 17.2388 262.735 19.036 262.735 21.3239H264.735C264.735 18.8304 264.321 16.6916 263.429 14.9615L261.651 15.878ZM262.735 21.3239V39H264.735V21.3239H262.735ZM263.735 38H259.461V40H263.735V38ZM260.461 39V21.6136H258.461V39H260.461ZM260.461 21.6136C260.461 19.2338 259.841 17.2469 258.466 15.7995L257.016 17.177C257.934 18.1444 258.461 19.5745 258.461 21.6136H260.461ZM258.473 15.807C257.109 14.3423 255.245 13.6591 253.014 13.6591V15.6591C254.815 15.6591 256.102 16.1953 257.008 17.1696L258.473 15.807ZM253.014 13.6591C251.468 13.6591 250.048 13.9868 248.776 14.6639L249.717 16.4291C250.667 15.923 251.758 15.6591 253.014 15.6591V13.6591ZM248.772 14.666C247.5 15.3514 246.496 16.3532 245.768 17.6452L247.51 18.6275C248.061 17.6496 248.796 16.9249 249.721 16.427L248.772 14.666ZM245.764 17.6523C245.036 18.9678 244.697 20.5197 244.697 22.2656H246.697C246.697 20.7758 246.986 19.5749 247.514 18.6204L245.764 17.6523ZM271.555 39H270.555V40H271.555V39ZM271.555 11.1818V10.1818H270.555V11.1818H271.555ZM275.829 11.1818H276.829V10.1818H275.829V11.1818ZM275.829 39V40H276.829V39H275.829ZM271.573 5.69425L270.88 6.41596L270.888 6.42287L271.573 5.69425ZM271.573 1.60121L270.888 0.872541L270.88 0.879525L271.573 1.60121ZM275.865 1.60121L275.173 2.32292L275.18 2.32983L275.865 1.60121ZM275.865 5.69425L275.18 4.96558L275.173 4.97257L275.865 5.69425ZM272.555 39V11.1818H270.555V39H272.555ZM271.555 12.1818H275.829V10.1818H271.555V12.1818ZM274.829 11.1818V39H276.829V11.1818H274.829ZM275.829 38H271.555V40H275.829V38ZM273.728 5.54546C273.148 5.54546 272.675 5.3577 272.258 4.96562L270.888 6.42287C271.678 7.16574 272.642 7.54546 273.728 7.54546V5.54546ZM272.265 4.97256C271.863 4.58758 271.685 4.16346 271.685 3.64773H269.685C269.685 4.72574 270.099 5.66597 270.88 6.41593L272.265 4.97256ZM271.685 3.64773C271.685 3.13199 271.863 2.70787 272.265 2.32289L270.88 0.879525C270.099 1.62948 269.685 2.56971 269.685 3.64773H271.685ZM272.258 2.32983C272.675 1.93775 273.148 1.75 273.728 1.75V-0.25C272.642 -0.25 271.678 0.129718 270.888 0.872578L272.258 2.32983ZM273.728 1.75C274.308 1.75 274.771 1.93722 275.173 2.32289L276.557 0.879524C275.776 0.130246 274.814 -0.25 273.728 -0.25V1.75ZM275.18 2.32983C275.592 2.71677 275.77 3.13892 275.77 3.64773H277.77C277.77 2.56279 277.346 1.62059 276.55 0.872579L275.18 2.32983ZM275.77 3.64773C275.77 4.15654 275.592 4.57868 275.18 4.96562L276.55 6.42287C277.346 5.67487 277.77 4.73267 277.77 3.64773H275.77ZM275.173 4.97257C274.771 5.35823 274.308 5.54546 273.728 5.54546V7.54546C274.814 7.54546 275.776 7.16521 276.557 6.41593L275.173 4.97257ZM287.044 38.6559L286.618 39.5607L286.624 39.5636L287.044 38.6559ZM283.621 35.7401L282.786 36.2911L282.789 36.2948L283.621 35.7401ZM283.295 27.228L284.139 27.7635L284.142 27.7589L283.295 27.228ZM289.29 23.6058L289.503 24.5827L289.51 24.5811L289.29 23.6058ZM293.147 22.9176L293.02 21.9258L293.017 21.9261L293.147 22.9176ZM297.258 22.4286L297.361 23.4234L297.371 23.4222L297.258 22.4286ZM299.576 21.831L299.087 20.9588L299.078 20.9641L299.576 21.831ZM298.852 16.0717L298.136 16.7701L298.141 16.7745L298.852 16.0717ZM289.652 15.9268L290.262 16.7189L290.262 16.7189L289.652 15.9268ZM287.207 18.7884L286.87 19.7301L287.73 20.0369L288.114 19.2095L287.207 18.7884ZM283.15 17.3395L282.231 16.9456L281.812 17.9234L282.814 18.2812L283.15 17.3395ZM286.048 13.3913L286.663 14.1798L286.664 14.179L286.048 13.3913ZM290.032 11.3991L290.284 12.3669L290.29 12.3654L290.032 11.3991ZM297.385 11.1456L297.201 12.1285L297.212 12.1306L297.385 11.1456ZM300.772 12.4315L300.257 13.289L300.261 13.2914L300.772 12.4315ZM303.506 15.3835L302.63 15.8657L302.63 15.8658L303.506 15.3835ZM304.593 39V40H305.593V39H304.593ZM300.319 39H299.319V40H300.319V39ZM300.319 35.233H301.319V34.233H300.319V35.233ZM300.102 35.233V34.233H299.472L299.2 34.8002L300.102 35.233ZM298.653 37.1708L299.366 37.8716L299.366 37.8716L298.653 37.1708ZM295.954 38.9276L295.559 38.0089L295.954 38.9276ZM296.769 34.8164L296.276 33.9465L296.272 33.9487L296.769 34.8164ZM299.413 32.2447L298.546 31.7464L298.542 31.7539L299.413 32.2447ZM300.319 25.0185H301.319V22.2564L299.551 24.3783L300.319 25.0185ZM299.124 25.6161L299.393 26.5792L299.406 26.5755L299.124 25.6161ZM297.023 26.0689L297.175 27.0573L297.187 27.0553L297.023 26.0689ZM294.723 26.3949L294.837 27.3885L294.851 27.3867L294.723 26.3949ZM292.93 26.6122L293.059 27.6038L293.06 27.6037L292.93 26.6122ZM289.815 27.3185L290.127 28.2684L290.134 28.266L289.815 27.3185ZM287.497 28.7493L286.762 28.0704L286.762 28.071L287.497 28.7493ZM288.275 34.6896L287.706 35.5119L287.716 35.5189L288.275 34.6896ZM291.843 38.652C290.209 38.652 288.754 38.3448 287.463 37.7482L286.624 39.5636C288.207 40.2951 289.952 40.652 291.843 40.652V38.652ZM287.47 37.7511C286.19 37.1491 285.193 36.295 284.453 35.1854L282.789 36.2948C283.739 37.7206 285.024 38.8105 286.618 39.5607L287.47 37.7511ZM284.455 35.189C283.736 34.1004 283.353 32.7549 283.353 31.1037H281.353C281.353 33.0746 281.815 34.8201 282.786 36.2911L284.455 35.189ZM283.353 31.1037C283.353 29.6336 283.643 28.5456 284.139 27.7635L282.45 26.6924C281.691 27.8905 281.353 29.3863 281.353 31.1037H283.353ZM284.142 27.7589C284.677 26.9048 285.388 26.2395 286.288 25.7534L285.337 23.9938C284.136 24.6426 283.168 25.547 282.447 26.6971L284.142 27.7589ZM286.288 25.7534C287.249 25.234 288.319 24.8421 289.503 24.5827L289.076 22.629C287.724 22.9249 286.476 23.3782 285.337 23.9938L286.288 25.7534ZM289.51 24.5811C290.76 24.2981 292.016 24.0742 293.277 23.9092L293.017 21.9261C291.695 22.0991 290.378 22.334 289.069 22.6305L289.51 24.5811ZM293.275 23.9094C294.961 23.6926 296.322 23.5308 297.361 23.4233L297.155 21.4339C296.093 21.5438 294.714 21.7079 293.02 21.9258L293.275 23.9094ZM297.371 23.4222C298.468 23.2976 299.409 23.081 300.075 22.6979L299.078 20.9641C298.778 21.1364 298.174 21.3181 297.145 21.435L297.371 23.4222ZM300.066 22.7031C300.948 22.208 301.319 21.3411 301.319 20.3821H299.319C299.319 20.7996 299.195 20.8985 299.087 20.9588L300.066 22.7031ZM301.319 20.3821V20.2372H299.319V20.3821H301.319ZM301.319 20.2372C301.319 18.2653 300.775 16.5953 299.563 15.369L298.141 16.7745C298.885 17.5283 299.319 18.6353 299.319 20.2372H301.319ZM299.568 15.3734C298.346 14.1211 296.573 13.5866 294.451 13.5866V15.5866C296.265 15.5866 297.426 16.0423 298.136 16.7701L299.568 15.3734ZM294.451 13.5866C292.275 13.5866 290.433 14.0623 289.041 15.1348L290.262 16.7189C291.189 16.0045 292.546 15.5866 294.451 15.5866V13.5866ZM289.041 15.1348C287.793 16.0971 286.856 17.1694 286.3 18.3672L288.114 19.2095C288.499 18.3789 289.192 17.5435 290.262 16.7189L289.041 15.1348ZM287.543 17.8466L283.486 16.3977L282.814 18.2812L286.87 19.7301L287.543 17.8466ZM284.069 17.7334C284.74 16.1671 285.613 14.9989 286.663 14.1798L285.433 12.6028C284.068 13.6673 283.008 15.1312 282.231 16.9456L284.069 17.7334ZM286.664 14.179C287.78 13.3058 288.985 12.7052 290.284 12.3669L289.78 10.4314C288.205 10.8417 286.754 11.5692 285.432 12.6037L286.664 14.179ZM290.29 12.3654C291.66 11.9999 292.999 11.8196 294.306 11.8196V9.8196C292.813 9.8196 291.301 10.0257 289.774 10.4329L290.29 12.3654ZM294.306 11.8196C295.122 11.8196 296.084 11.9192 297.201 12.1285L297.569 10.1627C296.367 9.93738 295.277 9.8196 294.306 9.8196V11.8196ZM297.212 12.1306C298.255 12.3133 299.269 12.6959 300.257 13.289L301.286 11.574C300.101 10.8631 298.857 10.3884 297.558 10.1606L297.212 12.1306ZM300.261 13.2914C301.182 13.8375 301.977 14.6783 302.63 15.8657L304.383 14.9013C303.587 13.4567 302.559 12.3294 301.282 11.5715L300.261 13.2914ZM302.63 15.8658C303.244 16.9807 303.593 18.5572 303.593 20.6719H305.593C305.593 18.3675 305.218 16.4184 304.383 14.9013L302.63 15.8658ZM303.593 20.6719V39H305.593V20.6719H303.593ZM304.593 38H300.319V40H304.593V38ZM301.319 39V35.233H299.319V39H301.319ZM300.319 34.233H300.102V36.233H300.319V34.233ZM299.2 34.8002C298.974 35.2716 298.569 35.8287 297.939 36.47L299.366 37.8716C300.088 37.1365 300.65 36.4017 301.003 35.6657L299.2 34.8002ZM297.939 36.47C297.375 37.0445 296.593 37.5641 295.559 38.0089L296.349 39.8462C297.561 39.3251 298.578 38.6735 299.366 37.8716L297.939 36.47ZM295.559 38.0089C294.594 38.4238 293.367 38.652 291.843 38.652V40.652C293.555 40.652 295.068 40.3972 296.349 39.8462L295.559 38.0089ZM292.495 36.8125C294.314 36.8125 295.921 36.455 297.266 35.6841L296.272 33.9487C295.3 34.506 294.057 34.8125 292.495 34.8125V36.8125ZM297.263 35.6863C298.573 34.9433 299.594 33.9622 300.285 32.7354L298.542 31.7539C298.05 32.628 297.308 33.3614 296.276 33.9465L297.263 35.6863ZM300.28 32.743C300.967 31.5481 301.319 30.2724 301.319 28.9304H299.319C299.319 29.9066 299.067 30.8404 298.546 31.7464L300.28 32.743ZM301.319 28.9304V25.0185H299.319V28.9304H301.319ZM299.551 24.3783C299.585 24.3376 299.576 24.367 299.437 24.4364C299.308 24.5008 299.115 24.5763 298.842 24.6568L299.406 26.5755C299.748 26.4748 300.062 26.3602 300.332 26.2253C300.591 26.0956 300.872 25.9167 301.087 25.6586L299.551 24.3783ZM298.854 24.6532C298.293 24.8102 297.629 24.954 296.858 25.0825L297.187 27.0553C298.01 26.9181 298.747 26.7601 299.393 26.5791L298.854 24.6532ZM296.871 25.0805C296.094 25.2001 295.335 25.3076 294.595 25.4031L294.851 27.3867C295.608 27.289 296.382 27.1792 297.175 27.0573L296.871 25.0805ZM294.609 25.4014C293.87 25.4862 293.266 25.5594 292.799 25.6208L293.06 27.6037C293.511 27.5443 294.103 27.4726 294.837 27.3884L294.609 25.4014ZM292.8 25.6206C291.631 25.7731 290.528 26.0222 289.495 26.371L290.134 28.266C291.033 27.9629 292.007 27.7411 293.059 27.6038L292.8 25.6206ZM289.502 26.3687C288.412 26.7275 287.486 27.288 286.762 28.0704L288.231 29.4281C288.691 28.9308 289.31 28.5374 290.127 28.2684L289.502 26.3687ZM286.762 28.071C285.969 28.9298 285.627 30.0539 285.627 31.321H287.627C287.627 30.4149 287.865 29.8245 288.231 29.4276L286.762 28.071ZM285.627 31.321C285.627 33.0916 286.304 34.5413 287.706 35.5118L288.845 33.8674C288.049 33.3166 287.627 32.5206 287.627 31.321H285.627ZM287.716 35.5189C289.032 36.4054 290.647 36.8125 292.495 36.8125V34.8125C290.938 34.8125 289.74 34.471 288.834 33.8604L287.716 35.5189ZM316.669 39V40H317.669V39H316.669ZM312.394 39H311.394V40H312.394V39ZM312.394 11.1818V10.1818H311.394V11.1818H312.394ZM316.524 11.1818H317.524V10.1818H316.524V11.1818ZM316.524 15.5284H315.524V16.5284H316.524V15.5284ZM316.886 15.5284V16.5284H317.526L317.794 15.9475L316.886 15.5284ZM319.856 12.1236L320.398 12.9638L320.404 12.9603L319.856 12.1236ZM329.944 11.9787L329.464 12.856L329.47 12.8592L329.944 11.9787ZM333.24 15.456L332.347 15.9059L332.348 15.9087L333.24 15.456ZM334.417 39V40H335.417V39H334.417ZM330.143 39H329.143V40H330.143V39ZM328.441 16.5064L327.705 17.1841L327.709 17.1877L328.441 16.5064ZM320.11 15.5465L319.627 14.6705L319.623 14.6728L320.11 15.5465ZM317.592 18.1364L316.713 17.6595L316.713 17.6595L317.592 18.1364ZM315.669 22.2656V39H317.669V22.2656H315.669ZM316.669 38H312.394V40H316.669V38ZM313.394 39V11.1818H311.394V39H313.394ZM312.394 12.1818H316.524V10.1818H312.394V12.1818ZM315.524 11.1818V15.5284H317.524V11.1818H315.524ZM316.524 16.5284H316.886V14.5284H316.524V16.5284ZM317.794 15.9475C318.365 14.7099 319.227 13.7199 320.398 12.9638L319.314 11.2834C317.829 12.2418 316.711 13.5216 315.978 15.1094L317.794 15.9475ZM320.404 12.9603C321.524 12.2269 323.031 11.8196 324.999 11.8196V9.8196C322.766 9.8196 320.844 10.2816 319.308 11.2869L320.404 12.9603ZM324.999 11.8196C326.744 11.8196 328.222 12.1765 329.464 12.856L330.424 11.1014C328.841 10.2355 327.022 9.8196 324.999 9.8196V11.8196ZM329.47 12.8592C330.686 13.5141 331.646 14.5147 332.347 15.9059L334.133 15.006C333.264 13.2822 332.027 11.9646 330.418 11.0982L329.47 12.8592ZM332.348 15.9087C333.041 17.2722 333.417 19.0602 333.417 21.3239H335.417C335.417 18.8546 335.009 16.7306 334.132 15.0032L332.348 15.9087ZM333.417 21.3239V39H335.417V21.3239H333.417ZM334.417 38H330.143V40H334.417V38ZM331.143 39V21.6136H329.143V39H331.143ZM331.143 21.6136C331.143 19.2565 330.528 17.2814 329.173 15.8251L327.709 17.1877C328.623 18.1703 329.143 19.6 329.143 21.6136H331.143ZM329.176 15.8287C327.817 14.3542 325.972 13.6591 323.768 13.6591V15.6591C325.524 15.6591 326.794 16.1955 327.705 17.1841L329.176 15.8287ZM323.768 13.6591C322.254 13.6591 320.866 13.9887 319.627 14.6705L320.592 16.4225C321.503 15.9211 322.553 15.6591 323.768 15.6591V13.6591ZM319.623 14.6728C318.384 15.3626 317.414 16.3685 316.713 17.6595L318.471 18.6132C319.002 17.6344 319.71 16.9137 320.596 16.4202L319.623 14.6728ZM316.713 17.6595C316 18.9733 315.669 20.5226 315.669 22.2656H317.669C317.669 20.7729 317.952 19.5693 318.471 18.6132L316.713 17.6595Z" fill="black"/>
</g>
<defs>
<filter id="filter0_d_15_33" x="0.463074" y="0.75" width="341.954" height="57.4503" filterUnits="userSpaceOnUse" color-interpolation-filters="sRGB">
<feFlood flood-opacity="0" result="BackgroundImageFix"/>
<feColorMatrix in="SourceAlpha" type="matrix" values="0 0 0 0 0 0 0 0 0 0 0 0 0 0 0 0 0 0 127 0" result="hardAlpha"/>
<feOffset dx="4" dy="6"/>
<feGaussianBlur stdDeviation="2"/>
<feComposite in2="hardAlpha" operator="out"/>
<feColorMatrix type="matrix" values="0 0 0 0 0 0 0 0 0 0 0 0 0 0 0 0 0 0 0.3 0"/>
<feBlend mode="normal" in2="BackgroundImageFix" result="effect1_dropShadow_15_33"/>
<feBlend mode="normal" in="SourceGraphic" in2="effect1_dropShadow_15_33" result="shape"/>
</filter>
</defs>
</svg>
